<svg height="32" viewBox="0 0 32 32" width="32" xmlns="http://www.w3.org/2000/svg">
<g fill="url(#Gradient1)">
<path d="m18 10h2v2h-2z"/><path d="m12 10h2v2h-2z"/><path d="m26 20h-5v-2h1a2.0023 2.0023 0 0 0 2-2v-4h2v-2h-2v-2a2.0023 2.0023 0 0 0 -2-2h-2v-4h-2v4h-4v-4h-2v4h-2a2.0023 2.0023 0 0 0 -2 2v2h-2v2h2v4a2.0023 2.0023 0 0 0 2 2h1v2h-5a2.0023 2.0023 0 0 0 -2 2v8h2v-8h20v8h2v-8a2.0023 2.0023 0 0 0 -2-2zm-16-12h12v8h-12zm3 10h6v2h-6z"/><path d="m0 0h32v32h-32z" fill="none"/>
</g>
<defs>
        <linearGradient id="Gradient1" x1="9.5" y1="1" x2="9.5" y2="17" gradientUnits="userSpaceOnUse">
            <stop stop-color="#F900BF"/>
            <stop offset="1" stop-color="#4700D8"/>
        </linearGradient>
    </defs>
</svg>