<svg height="32" viewBox="0 0 32 32" width="32" xmlns="http://www.w3.org/2000/svg">
    <g fill="url(#Gradient1)">
        <path d="m30 30h-26a2 2 0 0 1 -2-2v-26h2v26h26z"/>
        <path d="m10 16h2v10h-2z"/>
        <path d="m7 22h2v4h-2z"/>
        <path d="m26 8h2v18h-2z"/>
        <path d="m23 14h2v12h-2z"/>
        <path d="m15 12h2v14h-2z" transform="matrix(-1 0 0 -1 32 38)"/>
        <path d="m18 18h2v8h-2z" transform="matrix(-1 0 0 -1 38 44)"/>
        <path d="m0 0h32v32h-32z" fill="none"/>
    </g>
    <defs>
        <linearGradient id="Gradient1" x1="9.5" y1="1" x2="9.5" y2="17" gradientUnits="userSpaceOnUse">
            <stop stop-color="#F900BF"/>
            <stop offset="1" stop-color="#4700D8"/>
        </linearGradient>
    </defs>
</svg>