<svg enable-background="new 0 0 32 32" viewBox="0 0 32 32" xmlns="http://www.w3.org/2000/svg">
    <g stroke="url(#Gradient1)">
        <path d="m31 31.36h-12c-.199 0-.36-.161-.36-.36v-1.639h-11.64c-.199 0-.36-.161-.36-.36v-5.64h-5.64c-.199 0-.36-.161-.36-.36v-14c0-.199.161-.36.36-.36h5.645v-5.64c0-.199.161-.36.36-.36h11.635v-1.641c0-.199.161-.36.36-.36h12c.199 0 .36.161.36.36v4c0 .199-.161.36-.36.36h-12c-.199 0-.36-.161-.36-.36v-1.639h-11.276v5.28h5.636c.199 0 .36.161.36.36v6.641h5.28v-1.641c0-.199.161-.36.36-.36h12c.199 0 .36.161.36.36v4c0 .199-.161.36-.36.36h-12c-.199 0-.36-.161-.36-.36v-1.639h-5.28v6.639c0 .199-.161.36-.36.36h-5.64v5.279h11.28v-1.64c0-.199.161-.36.36-.36h12c.199 0 .36.161.36.36v4c0 .199-.161.36-.36.36zm-11.64-.72h11.28v-3.28h-11.28zm-18-7.999h11.28v-13.28h-11.28zm18-5h11.28v-3.279h-11.28zm0-13.001h11.28v-3.28h-11.28zm-8.356 14.721h-8v-.721h8zm0-3.001h-8v-.72h8zm0-2.999h-8v-.72h8z"/>
    </g>
    <path d="m0 0h32v32h-32z" fill="none"/>
    <defs>
        <linearGradient id="Gradient1" x1="9.5" y1="1" x2="9.5" y2="17" gradientUnits="userSpaceOnUse">
            <stop stop-color="#F900BF"/>
            <stop offset="1" stop-color="#4700D8"/>
        </linearGradient>
    </defs>
</svg>