<svg width="19" height="18" viewBox="0 0 19 18" fill="none" xmlns="http://www.w3.org/2000/svg">
<path d="M16.4142 4.58579L15.7071 5.2929L15.7071 5.29291L16.4142 4.58579ZM10.0631 3.84776L10.4458 2.9239L10.4457 2.92386L10.0631 3.84776ZM8.8284 2.82843L8.12126 3.5355L8.12132 3.53556L8.8284 2.82843ZM8.1716 2.17157L8.87874 1.4645L8.87868 1.46444L8.1716 2.17157ZM6.93694 1.15224L6.55426 2.07612L6.55427 2.07613L6.93694 1.15224ZM1.58579 1.58579L2.29289 2.2929L2.2929 2.29289L1.58579 1.58579ZM1.58579 14.4142L2.29291 13.7071L2.2929 13.7071L1.58579 14.4142ZM17.2071 14.7929C16.8166 14.4024 16.1834 14.4024 15.7929 14.7929C15.4024 15.1834 15.4024 15.8166 15.7929 16.2071L17.2071 14.7929ZM17.2929 17.7071C17.6834 18.0976 18.3166 18.0976 18.7071 17.7071C19.0976 17.3166 19.0976 16.6834 18.7071 16.2929L17.2929 17.7071ZM18 8C18 7.08547 18.0021 6.29897 17.9179 5.67221C17.8297 5.01669 17.631 4.38833 17.1213 3.87867L15.7071 5.29291C15.7832 5.36903 15.8774 5.50497 15.9357 5.93871C15.9979 6.40122 16 7.02893 16 8H18ZM17.1213 3.87868C16.6116 3.36902 15.9833 3.17027 15.3278 3.08214C14.701 2.99788 13.9145 3 13 3V5C13.9711 5 14.5988 5.00212 15.0613 5.06431C15.495 5.12262 15.631 5.21677 15.7071 5.2929L17.1213 3.87868ZM13 3H11.6569V5H13V3ZM11.6569 3C10.7578 3 10.5868 2.98229 10.4458 2.9239L9.68038 4.77163C10.2744 5.01771 10.921 5 11.6569 5V3ZM10.4457 2.92386C10.3047 2.86544 10.1713 2.7571 9.53548 2.1213L8.12132 3.53556C8.64168 4.05588 9.08633 4.5256 9.68047 4.77166L10.4457 2.92386ZM9.53554 2.12136L8.87874 1.4645L7.46446 2.87864L8.12126 3.5355L9.53554 2.12136ZM8.87868 1.46444C8.35833 0.944119 7.91368 0.474412 7.31961 0.228353L6.55427 2.07613C6.69532 2.13455 6.82867 2.2429 7.46452 2.8787L8.87868 1.46444ZM7.31962 0.22836C6.72558 -0.0177009 6.07906 0 5.34315 0V2C6.24224 2 6.41322 2.0177 6.55426 2.07612L7.31962 0.22836ZM5.34315 0H5V2H5.34315V0ZM5 0C4.08546 0 3.29896 -0.00212372 2.67221 0.0821412C2.01669 0.170274 1.38834 0.369021 0.878677 0.878689L2.2929 2.29289C2.36902 2.21677 2.50497 2.12262 2.9387 2.06431C3.40121 2.00212 4.02892 2 5 2V0ZM0.878689 0.878677C0.369021 1.38834 0.170274 2.01669 0.0821412 2.67221C-0.00212372 3.29896 0 4.08546 0 5H2C2 4.02892 2.00212 3.40121 2.06431 2.9387C2.12262 2.50497 2.21677 2.36902 2.29289 2.2929L0.878689 0.878677ZM0 5V11H2V5H0ZM0 11C0 11.9145 -0.00212373 12.701 0.0821413 13.3278C0.170274 13.9833 0.369021 14.6116 0.878677 15.1213L2.2929 13.7071C2.21677 13.631 2.12262 13.495 2.06431 13.0613C2.00212 12.5988 2 11.9711 2 11H0ZM0.878671 15.1213C1.38833 15.631 2.01668 15.8297 2.6722 15.9179C3.29896 16.0021 4.08546 16 5 16V14C4.02892 14 3.40121 13.9979 2.93871 13.9357C2.50497 13.8774 2.36903 13.7832 2.29291 13.7071L0.878671 15.1213ZM5 16H8V14H5V16ZM15 12.5C15 13.3284 14.3284 14 13.5 14V16C15.433 16 17 14.433 17 12.5H15ZM13.5 14C12.6716 14 12 13.3284 12 12.5H10C10 14.433 11.567 16 13.5 16V14ZM12 12.5C12 11.6716 12.6716 11 13.5 11V9C11.567 9 10 10.567 10 12.5H12ZM13.5 11C14.3284 11 15 11.6716 15 12.5H17C17 10.567 15.433 9 13.5 9V11ZM15.7929 16.2071L17.2929 17.7071L18.7071 16.2929L17.2071 14.7929L15.7929 16.2071Z" fill="url(#paint0_linear_36_407)"/>
<defs>
    <linearGradient id="paint0_linear_36_407" x1="9.5" y1="1" x2="9.5" y2="17" gradientUnits="userSpaceOnUse">
    <stop stop-color="#F900BF"/>
    <stop offset="1" stop-color="#4700D8"/>
    </linearGradient>
</defs>
</svg>
