<svg width="24" height="24" viewBox="0 0 24 24" fill="none" xmlns="http://www.w3.org/2000/svg">
<mask id="mask0_36_387" style="mask-type:alpha" maskUnits="userSpaceOnUse" x="0" y="0" width="24" height="24">
<path d="M21 13V11C21 7.22876 21 5.34315 19.8284 4.17157C18.6569 3 16.7712 3 13 3H11C7.22876 3 5.34315 3 4.17157 4.17157C3 5.34315 3 7.22876 3 11V13C3 16.7712 3 18.6569 4.17157 19.8284C5.34315 21 7.22876 21 11 21H13" stroke="white" stroke-width="2"/>
<path fill-rule="evenodd" clip-rule="evenodd" d="M17 14.0023L16.9826 13.9849C16.6486 13.6508 16.3606 13.3627 16.1033 13.146C15.8317 12.917 15.536 12.7157 15.1715 12.6058C14.6871 12.4596 14.1704 12.4596 13.686 12.6058C13.3216 12.7157 13.0259 12.917 12.7542 13.146C12.497 13.3627 12.2089 13.6508 11.8749 13.9849L11.8505 14.0093C11.5875 14.2723 11.4327 14.4258 11.3126 14.5251L11.2952 14.5392L11.2844 14.5197C11.2099 14.3829 11.1231 14.1829 10.9766 13.8409L10.9308 13.7341L10.9119 13.69C10.6069 12.978 10.3506 12.3802 10.097 11.9296C9.83576 11.4653 9.51021 11.03 9.00279 10.7756C8.57954 10.5634 8.10592 10.4722 7.63415 10.512C7.06853 10.5598 6.60458 10.8431 6.18959 11.1771C5.84215 11.4568 5.45219 11.8374 5 12.2884V13.5004C5 13.9433 5.00026 14.3446 5.00264 14.7099L5.95745 13.7551C6.54816 13.1644 6.94266 12.7716 7.2645 12.5126C7.58242 12.2567 7.7192 12.2253 7.7783 12.2203C7.93556 12.207 8.09344 12.2375 8.23452 12.3082C8.28755 12.3347 8.40288 12.4147 8.60303 12.7704C8.80563 13.1304 9.02603 13.6416 9.35515 14.4095L9.40092 14.5163L9.41489 14.549C9.54253 14.8468 9.66107 15.1236 9.77945 15.3406C9.90348 15.568 10.0837 15.8404 10.387 16.0282C10.7447 16.2496 11.1713 16.3318 11.5857 16.259C11.937 16.1974 12.2055 16.0113 12.4051 15.8463C12.5956 15.6887 12.8084 15.4758 13.0375 15.2466L13.0627 15.2215C13.428 14.8562 13.6644 14.6208 13.859 14.4568C14.0453 14.2998 14.1332 14.2615 14.1812 14.247C14.3426 14.1983 14.5149 14.1983 14.6763 14.247C14.7243 14.2615 14.8123 14.2998 14.9985 14.4568C15.1931 14.6208 15.4295 14.8562 15.7948 15.2215L16.9523 16.379C16.9919 15.7637 16.9988 14.9987 17 14.0023Z" fill="white"/>
<path d="M16.5 9C17.3284 9 18 8.32843 18 7.5C18 6.67157 17.3284 6 16.5 6C15.6716 6 15 6.67157 15 7.5C15 8.32843 15.6716 9 16.5 9Z" fill="white"/>
<path d="M19.5 17.8333V17" stroke="white" stroke-linecap="round" stroke-linejoin="round"/>
<path d="M19.5 22.0001V21.4446" stroke="white" stroke-linecap="round" stroke-linejoin="round"/>
<path d="M21.4445 19.5H22" stroke="white" stroke-linecap="round" stroke-linejoin="round"/>
<path d="M17 19.5H17.8333" stroke="white" stroke-linecap="round" stroke-linejoin="round"/>
<path d="M21.0715 17.9288L21.268 17.7324" stroke="white" stroke-linecap="round" stroke-linejoin="round"/>
<path d="M17.7322 21.2676L18.125 20.8748" stroke="white" stroke-linecap="round" stroke-linejoin="round"/>
<path d="M20.875 20.8748L21.2679 21.2676" stroke="white" stroke-linecap="round" stroke-linejoin="round"/>
<path d="M17.7322 17.7324L18.3214 18.3217" stroke="white" stroke-linecap="round" stroke-linejoin="round"/>
</mask>
<g mask="url(#mask0_36_387)">
<rect width="24" height="24" fill="url(#paint0_linear_36_387)"/>
</g>
<defs>
<linearGradient id="paint0_linear_36_387" x1="12" y1="0" x2="12" y2="24" gradientUnits="userSpaceOnUse">
<stop stop-color="#F900BF"/>
<stop offset="1" stop-color="#4700D8"/>
</linearGradient>
</defs>
</svg>
