<svg width="2100" height="2193" viewBox="0 0 2100 2193" fill="none" xmlns="http://www.w3.org/2000/svg">
<path d="M1166.42 657.296L1673.39 655.15L1155.69 914.27L1075.21 708.262M1075.21 708.262C1134.77 708.262 1183.05 659.984 1183.05 600.429C1183.05 540.875 1134.77 492.597 1075.21 492.597M1075.21 708.262C1015.66 708.262 967.382 659.984 967.382 600.429C967.382 540.875 1015.66 492.597 1075.21 492.597M1576.29 1159.98C1574.72 1135.99 1578.75 1111.97 1588.06 1089.81C1597.37 1067.66 1611.71 1047.96 1629.94 1032.3C1646.25 1018.57 1666.72 1010.73 1688.03 1010.05C1709.34 1009.37 1730.26 1015.88 1747.43 1028.54C1766.58 1043.12 1782.08 1061.95 1792.7 1083.55C1803.31 1105.16 1808.75 1128.93 1808.58 1153M1097.75 1159.98C1096.22 1136 1100.27 1111.99 1109.58 1089.84C1118.89 1067.69 1133.2 1047.99 1151.39 1032.3C1167.54 1019.09 1187.58 1011.56 1208.43 1010.89C1229.28 1010.21 1249.77 1016.41 1266.74 1028.54C1285.57 1043.42 1300.83 1062.31 1311.41 1083.85C1321.99 1105.38 1327.63 1129.01 1327.9 1153M1773.71 1359.55C1774.27 1418.01 1759.76 1475.62 1731.57 1526.84C1703.38 1578.05 1662.46 1621.14 1612.77 1651.93C1564.29 1681.51 1508.61 1697.15 1451.82 1697.15C1395.04 1697.15 1339.35 1681.51 1290.88 1651.93C1241.19 1621.14 1200.27 1578.05 1172.08 1526.84C1143.89 1475.62 1129.37 1418.01 1129.94 1359.55M377.253 1215.24L681.438 1498.5M859.013 1431.97C827.103 1430.45 795.217 1435.42 765.284 1446.58C735.352 1457.75 707.996 1474.87 684.875 1496.91C661.754 1518.96 643.348 1545.47 630.772 1574.83C618.196 1604.2 611.711 1635.81 611.711 1667.76C611.711 1699.7 618.196 1731.32 630.772 1760.68C643.348 1790.05 661.754 1816.56 684.875 1838.6C707.996 1860.65 735.352 1877.77 765.284 1888.93C795.217 1900.09 827.103 1905.06 859.013 1903.54M1219.53 318.241H2050M859.013 1874.03H2050M1143.35 318.241H859.013M972.21 632.618L389.056 973.82M1075.21 492.597L1155.69 286.588L1673.39 545.172L1166.42 543.562M966.309 50H1942.7C2001.96 50 2050 98.0381 2050 157.296V2034.98C2050 2094.24 2001.96 2142.27 1942.7 2142.27H966.309C907.051 2142.27 859.013 2094.24 859.013 2034.98V157.296C859.013 98.0381 907.051 50 966.309 50ZM427.682 1087.55C427.541 1137.59 407.6 1185.54 372.216 1220.93C336.832 1256.31 288.882 1276.25 238.841 1276.39C201.492 1276.39 164.982 1265.32 133.927 1244.57C102.872 1223.82 78.6677 1194.33 64.3748 1159.82C50.0818 1125.31 46.3421 1087.34 53.6286 1050.71C60.9151 1014.08 78.9005 980.433 105.31 954.023C131.72 927.613 165.369 909.627 202 902.341C238.632 895.055 276.602 898.794 311.108 913.087C345.614 927.38 375.107 951.584 395.857 982.639C416.607 1013.69 427.682 1050.2 427.682 1087.55Z" stroke="url(#paint0_linear_32_291)" stroke-width="100" stroke-linecap="round" stroke-linejoin="round"/>
<defs>
<linearGradient id="paint0_linear_32_291" x1="1050" y1="50" x2="1050" y2="2142.27" gradientUnits="userSpaceOnUse">
<stop stop-color="#F900BF"/>
<stop offset="1" stop-color="#4700D8"/>
</linearGradient>
</defs>
</svg>
