<svg width="571" height="323" viewBox="0 0 571 323" fill="none" opacity=".3" xmlns="http://www.w3.org/2000/svg">
    <path d="M131.786 286.974L199.076 212.526" stroke="white" stroke-width="3"/>
    <path d="M104.793 79.7751L106.32 148.908" stroke="white" stroke-width="3"/>
    <path d="M328.575 129.888L352.761 185.549" stroke="white" stroke-width="3"/>
    <path d="M442.321 195.491L493.892 147.961" stroke="white" stroke-width="3"/>
    <path d="M261.312 159.227L154.373 140.023" stroke="white" stroke-width="3"/>
    <path d="M261.312 159.227L199.076 212.526" stroke="white" stroke-width="3"/>
    <path d="M261.312 159.227L195.026 121.524" stroke="white" stroke-width="3"/>
    <path d="M261.312 159.227L313.434 202.792" stroke="white" stroke-width="3"/>
    <path d="M562.289 261.575L507.224 233.248" stroke="white" stroke-width="3"/>
    <path d="M27.6994 145.429L106.32 148.908" stroke="white" stroke-width="3"/>
    <path d="M442.321 195.49L507.224 233.248" stroke="white" stroke-width="3"/>
    <path d="M106.32 148.908L154.373 140.023" stroke="white" stroke-width="3"/>
    <path d="M27.6994 145.429L29.3738 199.52" stroke="white" stroke-width="3"/>
    <path d="M313.434 202.792L352.761 185.549" stroke="white" stroke-width="3"/>
    <path d="M92.1795 222.71L154.373 140.023" stroke="white" stroke-width="3"/>
    <path d="M48.1277 274.871L29.3738 199.52" stroke="white" stroke-width="3"/>
    <path d="M195.026 121.524L106.32 148.908" stroke="white" stroke-width="3"/>
    <path d="M261.312 159.227L352.761 185.549" stroke="white" stroke-width="3"/>
    <path d="M261.312 159.227L328.575 129.888" stroke="white" stroke-width="3"/>
    <path d="M106.32 148.908L199.076 212.526" stroke="white" stroke-width="3"/>
    <path d="M313.434 202.792L291.045 241.66" stroke="white" stroke-width="3"/>
    <path d="M78.7703 9.0694L104.793 79.7751" stroke="white" stroke-width="3"/>
    <path d="M291.045 241.66L352.761 185.549" stroke="white" stroke-width="3"/>
    <path d="M48.1276 274.871L92.1795 222.71" stroke="white" stroke-width="3"/>
    <path d="M106.32 148.908L29.3738 199.52" stroke="white" stroke-width="3"/>
    <path d="M48.1277 274.871L131.786 286.974" stroke="white" stroke-width="3"/>
    <path d="M291.045 241.66L199.076 212.526" stroke="white" stroke-width="3"/>
    <path d="M442.321 195.49L352.761 185.549" stroke="white" stroke-width="3"/>
    <path d="M104.793 79.7751L154.373 140.023" stroke="white" stroke-width="3"/>
    <path d="M39.3553 266.683C34.8331 271.528 35.0947 279.121 39.9395 283.643C44.7844 288.166 52.3779 287.904 56.9 283.059C61.4222 278.214 61.1606 270.621 56.3158 266.099C51.4709 261.576 43.8775 261.838 39.3553 266.683Z" fill="white"/>
    <path d="M74.3841 4.97528C72.123 7.39771 72.2538 11.1944 74.6762 13.4555C77.0987 15.7166 80.8954 15.5858 83.1565 13.1634C85.4176 10.741 85.2868 6.94425 82.8644 4.68316C80.4419 2.42207 76.6452 2.55286 74.3841 4.97528Z" fill="white"/>
    <path d="M245.961 144.898C238.047 153.376 238.505 166.665 246.983 174.579C255.462 182.493 268.75 182.035 276.664 173.556C284.578 165.078 284.12 151.789 275.642 143.875C267.163 135.962 253.875 136.419 245.961 144.898Z" fill="white"/>
    <path d="M188.447 115.383C185.055 119.016 185.251 124.712 188.885 128.103C192.519 131.495 198.214 131.299 201.605 127.665C204.997 124.031 204.801 118.336 201.167 114.945C197.533 111.553 191.838 111.749 188.447 115.383Z" fill="white"/>
    <path d="M85.6002 216.569C82.2086 220.203 82.4048 225.898 86.0384 229.289C89.6721 232.681 95.3672 232.485 98.7588 228.851C102.15 225.218 101.954 219.523 98.3206 216.131C94.687 212.739 88.9919 212.935 85.6002 216.569Z" fill="white"/>
    <path d="M125.207 280.832C121.815 284.466 122.012 290.161 125.645 293.553C129.279 296.945 134.974 296.748 138.366 293.115C141.757 289.481 141.561 283.786 137.927 280.394C134.294 277.003 128.599 277.199 125.207 280.832Z" fill="white"/>
    <path d="M21.1201 139.288C17.7285 142.922 17.9247 148.617 21.5583 152.008C25.192 155.4 30.8871 155.204 34.2787 151.57C37.6703 147.937 37.4742 142.242 33.8405 138.85C30.2069 135.458 24.5118 135.654 21.1201 139.288Z" fill="white"/>
    <path d="M96.021 71.5869C91.4989 76.4318 91.7604 84.0252 96.6053 88.5474C101.45 93.0696 109.044 92.808 113.566 87.9632C118.088 83.1183 117.826 75.5248 112.982 71.0027C108.137 66.4805 100.543 66.7421 96.021 71.5869Z" fill="white"/>
    <path d="M304.662 194.604C300.14 199.448 300.401 207.042 305.246 211.564C310.091 216.086 317.685 215.825 322.207 210.98C326.729 206.135 326.467 198.542 321.622 194.019C316.778 189.497 309.184 189.759 304.662 194.604Z" fill="white"/>
    <path d="M433.549 187.302C429.027 192.147 429.288 199.741 434.133 204.263C438.978 208.785 446.572 208.523 451.094 203.679C455.616 198.834 455.354 191.24 450.51 186.718C445.665 182.196 438.071 182.458 433.549 187.302Z" fill="white"/>
    <path d="M321.995 123.747C318.604 127.38 318.8 133.075 322.434 136.467C326.067 139.859 331.762 139.663 335.154 136.029C338.546 132.395 338.349 126.7 334.716 123.308C331.082 119.917 325.387 120.113 321.995 123.747Z" fill="white"/>
    <path d="M90.9688 134.579C83.055 143.057 83.5128 156.346 91.9912 164.26C100.47 172.174 113.758 171.716 121.672 163.237C129.586 154.759 129.128 141.47 120.65 133.556C112.171 125.643 98.8826 126.1 90.9688 134.579Z" fill="white"/>
    <path d="M557.903 257.481C555.642 259.903 555.773 263.7 558.195 265.961C560.618 268.222 564.414 268.091 566.675 265.669C568.937 263.247 568.806 259.45 566.383 257.189C563.961 254.928 560.164 255.058 557.903 257.481Z" fill="white"/>
    <path d="M282.272 233.472C277.75 238.317 278.012 245.91 282.857 250.432C287.702 254.954 295.295 254.693 299.817 249.848C304.339 245.003 304.078 237.41 299.233 232.887C294.388 228.365 286.795 228.627 282.272 233.472Z" fill="white"/>
    <path d="M489.506 143.867C487.245 146.29 487.376 150.086 489.798 152.347C492.22 154.608 496.017 154.478 498.278 152.055C500.539 149.633 500.409 145.836 497.986 143.575C495.564 141.314 491.767 141.445 489.506 143.867Z" fill="white"/>
    <path d="M188.11 202.291C182.458 208.347 182.785 217.839 188.841 223.491C194.897 229.144 204.389 228.817 210.041 222.761C215.694 216.705 215.367 207.213 209.311 201.56C203.255 195.908 193.763 196.235 188.11 202.291Z" fill="white"/>
    <path d="M500.645 227.107C497.253 230.74 497.449 236.436 501.083 239.827C504.717 243.219 510.412 243.023 513.803 239.389C517.195 235.755 516.999 230.06 513.365 226.669C509.732 223.277 504.037 223.473 500.645 227.107Z" fill="white"/>
    <path d="M143.408 129.788C137.755 135.844 138.082 145.336 144.138 150.989C150.194 156.641 159.686 156.314 165.339 150.258C170.991 144.202 170.664 134.71 164.608 129.058C158.552 123.405 149.06 123.732 143.408 129.788Z" fill="white"/>
    <path d="M20.6014 191.332C16.0792 196.176 16.3408 203.77 21.1856 208.292C26.0305 212.814 33.624 212.553 38.1461 207.708C42.6683 202.863 42.4067 195.27 37.5619 190.747C32.717 186.225 25.1236 186.487 20.6014 191.332Z" fill="white"/>
    <path d="M339.602 173.266C332.819 180.534 333.211 191.924 340.478 198.707C347.746 205.491 359.136 205.098 365.919 197.831C372.702 190.564 372.31 179.173 365.043 172.39C357.776 165.607 346.385 165.999 339.602 173.266Z" fill="white"/>
</svg>
