<svg width="205" height="128" viewBox="0 0 205 128" fill="none" xmlns="http://www.w3.org/2000/svg">
<path fill-rule="evenodd" clip-rule="evenodd" d="M33.826 63.5595L155.495 61.9532L156.314 122.111L34.6449 123.717L33.826 63.5595Z" stroke="white" stroke-width="8" stroke-miterlimit="10" stroke-linejoin="round"/>
<path fill-rule="evenodd" clip-rule="evenodd" d="M73.2332 64.7412L94.9025 64.4578L95.6269 120.615L73.9576 120.899L73.2332 64.7412Z" fill="white"/>
<path fill-rule="evenodd" clip-rule="evenodd" d="M113.476 65.2326L135.145 64.9491L135.87 121.107L114.2 121.39L113.476 65.2326Z" fill="white"/>
<path fill-rule="evenodd" clip-rule="evenodd" d="M156.232 73.8548L199.571 73.2879L200.043 108.437L156.705 109.004L156.232 73.8548Z" stroke="white" stroke-width="8" stroke-miterlimit="10" stroke-linejoin="round"/>
<path fill-rule="evenodd" clip-rule="evenodd" d="M173.771 79.2985L182.212 79.204L182.307 86.6056L173.866 86.7L173.771 79.2985Z" fill="white"/>
<path fill-rule="evenodd" clip-rule="evenodd" d="M173.986 95.6334L182.427 95.5389L182.522 102.94L174.081 103.035L173.986 95.6334Z" fill="white"/>
<path d="M103.113 23L74.8297 5.18237L62.0832 35.5974L103.113 62.9147L109.5 56.5" stroke="white" stroke-width="8" stroke-miterlimit="10" stroke-linejoin="round"/>
<path fill-rule="evenodd" clip-rule="evenodd" d="M191.449 74.5285L198.409 74.4655L198.882 109.615L191.921 109.678L191.449 74.5285Z" fill="white"/>
<path fill-rule="evenodd" clip-rule="evenodd" d="M100.037 62.7005L86.8463 33.397L127.47 4.81071L140.661 34.1142L100.037 62.7005Z" stroke="white" stroke-width="8" stroke-miterlimit="10" stroke-linejoin="round"/>
<path d="M11.057 82.6709L15.7133 72.7959H18.4633L22.9945 82.6709H19.4789L17.0258 76.624L14.5883 82.6709H11.057ZM46.9592 82.6709L51.6154 72.7959H54.3654L58.8967 82.6709H55.3811L52.9279 76.624L50.4904 82.6709H46.9592Z" fill="white"/>
</svg>
